<svg width="457" height="457" viewBox="0 0 457 457" fill="none" xmlns="http://www.w3.org/2000/svg">
<path d="M313.27 296.279C298.48 309.139 280.08 325.139 246.56 325.139H226.55C202.33 325.139 180.3 316.519 164.54 300.859C149.15 285.559 140.65 264.639 140.65 241.919V215.049C140.65 192.329 149.13 171.389 164.54 156.109C180.31 140.449 202.33 131.829 226.55 131.829H246.56C280.07 131.829 298.48 147.829 313.27 160.689C328.61 174.029 341.86 185.549 377.16 185.549C382.64 185.549 388.02 185.119 393.25 184.289C393.21 184.179 393.17 184.089 393.13 183.989C391.03 178.889 388.56 173.869 385.71 169.029L362.11 128.929C340.46 92.1287 300.43 69.4688 257.13 69.4688H209.92C166.62 69.4688 126.59 92.1387 104.94 128.929L81.34 169.029C59.69 205.829 59.69 251.149 81.34 287.939L104.94 328.039C126.59 364.839 166.62 387.489 209.92 387.489H257.13C300.43 387.489 340.46 364.819 362.11 328.039L385.71 287.939C388.56 283.089 391.03 278.089 393.13 272.989C393.17 272.879 393.21 272.789 393.25 272.689C388.02 271.859 382.66 271.429 377.16 271.429C341.87 271.419 328.61 282.939 313.27 296.279Z" fill="#C8D4EA" fill-opacity="0.780392"/>
<path d="M246.57 156.16H226.56C189.7 156.16 165.47 181.99 165.47 215.05V241.92C165.47 274.98 189.69 300.81 226.56 300.81H246.57C300.28 300.81 296.06 247.09 377.16 247.09C384.93 247.09 392.61 247.79 400.08 249.15C402.54 235.49 402.54 221.51 400.08 207.84C392.6 209.2 384.93 209.9 377.16 209.9C296.06 209.89 300.28 156.16 246.57 156.16Z" fill="#C8D4EA" fill-opacity="0.780392"/>
<path d="M446.66 268.761C432.81 258.741 416.92 252.201 400.07 249.121C400.04 249.251 400.03 249.381 400 249.511C398.56 257.381 396.31 265.131 393.23 272.651C407.45 274.911 420.55 280.151 431.75 288.201C431.71 288.321 431.68 288.441 431.64 288.571C425.18 309.141 415.44 328.531 402.71 346.171C390.13 363.591 374.92 378.931 357.49 391.741C321.31 418.361 278.22 432.421 232.86 432.421C204.78 432.421 177.55 427.031 151.92 416.401C127.17 406.131 104.93 391.421 85.8101 372.671C66.7001 353.921 51.7101 332.111 41.2401 307.821C30.4101 282.681 24.9101 255.971 24.9101 228.421C24.9101 200.871 30.4101 174.161 41.2401 149.021C51.7101 124.741 66.7001 102.921 85.8101 84.1711C104.92 65.4211 127.16 50.7211 151.92 40.4411C177.54 29.8111 204.77 24.4211 232.86 24.4211C278.22 24.4211 321.31 38.4811 357.49 65.1011C374.92 77.9211 390.12 93.2511 402.71 110.671C415.44 128.321 425.18 147.711 431.64 168.271C431.68 168.401 431.72 168.521 431.75 168.641C420.56 176.681 407.45 181.941 393.23 184.191C396.31 191.721 398.57 199.491 400 207.361C400.03 207.491 400.04 207.611 400.07 207.741C416.92 204.661 432.8 198.121 446.66 188.101C459.94 178.461 457.37 167.571 455.35 161.111C426.08 67.9011 337.55 0.121094 232.87 0.121094C104.32 0.121094 0.120117 102.341 0.120117 228.441C0.120117 354.541 104.33 456.761 232.87 456.761C337.55 456.761 426.08 388.971 455.35 295.711C457.38 289.291 459.96 278.411 446.66 268.761Z" fill="#C8D4EA" fill-opacity="0.780392"/>
</svg>
