<svg width="32" height="32" viewBox="0 0 32 32" fill="none" xmlns="http://www.w3.org/2000/svg">
<path d="M4.02024 19.6502C3.81024 16.2523 5.23724 12.4754 8.17624 9.53603C14.5682 3.14464 27.8782 4.0405 27.9542 4.04565C27.9172 4.0984 18.1872 18.2064 6.65624 19.5259C5.76524 19.6279 4.88424 19.668 4.02024 19.6502Z" fill="#03CA9B"/>
<path d="M5.37109 23.9938C5.70009 24.5188 6.08911 25.0104 6.53911 25.4605C10.4851 29.4059 17.6151 28.6726 22.4651 23.8227C28.8741 17.4131 27.9551 4.04492 27.9551 4.04492C27.9191 4.12413 20.9441 19.7593 9.8591 23.1697C8.3541 23.6326 6.84609 23.9023 5.37109 23.9938Z" fill="#03CA9B"/>
</svg>
