<svg width="112" height="132" viewBox="0 0 112 132" fill="none" xmlns="http://www.w3.org/2000/svg">
<path fill-rule="evenodd" clip-rule="evenodd" d="M63 132.002C54.9355 131.871 46.9648 130.164 39.5083 126.979C31.7437 123.662 24.688 118.799 18.7451 112.672C12.8022 106.543 8.08789 99.2659 4.87158 91.2601C1.65527 83.2523 0 74.6702 0 66.0023C0 57.3343 1.65527 48.7523 4.87158 40.7444C8.08789 32.7386 12.8022 25.4612 18.7451 19.3323C24.688 13.2054 31.7437 8.3421 39.5083 5.02569C46.9648 1.84015 54.9355 0.133115 63 0.00225527C63.2222 -0.00165098 63.4443 0.000302149 63.6665 0.00225527H64H104C108.418 0.00225527 112 3.58429 112 8.00226V124.002C112 128.42 108.418 132.002 104 132.002H64L63.4858 132.004L63 132.002ZM43.5 53.0023C39.3579 53.0023 36 56.3597 36 60.5023V98.5023C36 102.645 39.3579 106.002 43.5 106.002C47.6421 106.002 51 102.645 51 98.5023V60.5023C51 56.3597 47.6421 53.0023 43.5 53.0023ZM58 74.0023C58 70.137 61.1338 67.0023 65 67.0023C68.8662 67.0023 72 70.137 72 74.0023V99.0023C72 102.867 68.8662 106.002 65 106.002C61.1338 106.002 58 102.867 58 99.0023V74.0023ZM85.5 38.0023C81.3579 38.0023 78 41.3597 78 45.5023V98.5023C78 102.645 81.3579 106.002 85.5 106.002C89.6421 106.002 93 102.645 93 98.5023V45.5023C93 41.3597 89.6421 38.0023 85.5 38.0023Z" fill="white"/>
</svg>
