<svg width="1216" height="608" viewBox="0 0 1216 608" fill="none" xmlns="http://www.w3.org/2000/svg">
<path d="M912.019 547.719V607.864H893.494C892.202 607.896 890.942 607.927 889.651 607.927C888.359 607.927 887.036 607.927 885.713 607.927C884.389 607.927 883.098 607.927 881.774 607.927H774.944C716.409 607.927 661.749 591.395 615.374 562.708C612.886 561.197 610.46 559.622 608.034 558.048C590.707 546.648 574.608 533.517 560.021 518.906C528.486 487.353 503.849 448.873 488.57 405.984C488.412 405.543 488.286 405.133 488.097 404.693C467.021 346.122 410.943 304.24 345.099 304.24H333.537C332.561 304.177 331.584 304.177 330.607 304.177C329.631 304.177 328.654 304.177 327.677 304.177H304.459L304.459 62.4935H304.364V0.490234L326.134 0.490234C326.323 0.490234 326.512 0.490234 326.701 0.490234C327.992 0.490234 329.316 0.490234 330.639 0.490234C331.962 0.490234 333.254 0.490234 334.577 0.490234L441.408 0.490234C499.943 0.490234 554.603 17.0223 600.977 45.7095C603.466 47.221 605.892 48.7955 608.317 50.37C625.645 61.7693 641.743 74.9005 656.33 89.5117C687.866 121.064 712.502 159.545 727.782 202.434C727.939 202.875 728.065 203.284 728.254 203.725C749.331 262.296 805.408 304.177 871.252 304.177H882.814C883.791 304.24 884.767 304.24 885.744 304.24C886.721 304.24 887.697 304.24 888.674 304.24H911.893L911.893 547.75H912.05L912.019 547.719Z" fill="white"/>
<path d="M1215.72 304.243L911.864 304.243V0.902344C1079.5 1.0283 1215.41 136.749 1215.72 304.275V304.243Z" fill="white"/>
<path d="M0.5 304.23L304.359 304.23L304.359 607.603C136.724 607.477 0.815043 471.756 0.5 304.23Z" fill="white"/>
</svg>
