<svg width="23" height="27" viewBox="0 0 23 27" fill="none" xmlns="http://www.w3.org/2000/svg">
<path d="M11.9775 20.077C11.6751 20.1102 11.5911 19.6956 11.8767 19.6127C11.8935 19.6127 11.8935 19.6127 11.9103 19.5961C17.8739 17.9376 22.2416 14.9358 21.6704 12.8958C21.0824 10.8559 15.774 10.5408 9.81036 12.1993C3.84676 13.8577 -0.520956 16.8596 0.0502056 18.8995C1.7301 24.7871 7.92888 28.2367 13.8925 26.5783C18.7474 25.2349 21.956 20.9229 22.0736 16.1962C17.7563 19.8614 11.9775 20.077 11.9775 20.077Z" fill="white"/>
<path d="M17.8908 5.03425C16.8492 1.36902 12.9855 -0.770418 9.25617 0.257838C6.43396 1.0539 4.48529 3.4587 4.19971 6.19518C4.70367 5.86349 6.93793 4.53671 10.3313 4.3211C10.4153 4.3211 10.4657 4.30452 10.4657 4.30452C10.6504 4.27135 10.7008 4.55329 10.5328 4.60305H10.516C6.78674 5.6313 4.06532 7.50538 4.41809 8.78241C4.78767 10.0594 8.08025 10.2419 11.8096 9.21361C15.5389 8.16877 18.2603 6.31128 17.8908 5.03425Z" fill="white"/>
</svg>
